<svg width="123" height="40" viewBox="0 0 123 40" fill="none" xmlns="http://www.w3.org/2000/svg">
<path d="M25.12 32.08C24.64 32.32 24.0533 32.52 23.36 32.68C22.6667 32.8667 21.9067 33.0267 21.08 33.16C20.28 33.2933 19.4533 33.3867 18.6 33.44C17.7733 33.52 16.9867 33.56 16.24 33.56C14.0267 33.56 11.9733 33.2133 10.08 32.52C8.21333 31.8267 6.6 30.8133 5.24 29.48C3.88 28.1467 2.81333 26.5067 2.04 24.56C1.26667 22.6133 0.88 20.4 0.88 17.92C0.88 15.6533 1.24 13.5733 1.96 11.68C2.68 9.76 3.70667 8.10667 5.04 6.72C6.37333 5.33333 7.98667 4.25333 9.88 3.48C11.7733 2.70667 13.9067 2.32 16.28 2.32C17.88 2.32 19.3067 2.41333 20.56 2.6C21.8133 2.76 23 3.01333 24.12 3.36C24.4133 3.44 24.5867 3.53333 24.64 3.64C24.6933 3.72 24.7067 3.81333 24.68 3.92L24.2 7.32C24.1733 7.50667 24.1067 7.64 24 7.72C23.8933 7.8 23.6933 7.78667 23.4 7.68C22.1467 7.28 20.96 7 19.84 6.84C18.72 6.65333 17.52 6.56 16.24 6.56C14.64 6.56 13.1867 6.84 11.88 7.4C10.5733 7.93333 9.45333 8.70667 8.52 9.72C7.58667 10.7067 6.85333 11.8933 6.32 13.28C5.81333 14.6667 5.56 16.2133 5.56 17.92C5.56 19.76 5.81333 21.4 6.32 22.84C6.85333 24.2533 7.58667 25.4533 8.52 26.44C9.48 27.4 10.6133 28.1333 11.92 28.64C13.2267 29.12 14.6667 29.36 16.24 29.36C17.44 29.36 18.48 29.3067 19.36 29.2C20.24 29.0933 20.8933 28.9333 21.32 28.72V20.68H14.72C14.56 20.68 14.4267 20.64 14.32 20.56C14.24 20.4533 14.2 20.3333 14.2 20.2V17C14.2 16.84 14.2533 16.7067 14.36 16.6C14.4933 16.4933 14.6267 16.44 14.76 16.44H25C25.4 16.44 25.6533 16.5067 25.76 16.64C25.8667 16.7733 25.92 17.04 25.92 17.44V30.64C25.92 31.04 25.84 31.3467 25.68 31.56C25.52 31.7733 25.3333 31.9467 25.12 32.08ZM45.275 32.96C45.0883 32.96 44.9683 32.9333 44.915 32.88C44.8617 32.8533 44.835 32.76 44.835 32.6V30.8C44.1683 31.7333 43.315 32.4267 42.275 32.88C41.2617 33.36 40.235 33.6 39.195 33.6C38.1017 33.6 37.0883 33.4533 36.155 33.16C35.2483 32.8667 34.4617 32.4267 33.795 31.84C33.155 31.2533 32.6483 30.5333 32.275 29.68C31.9017 28.8 31.715 27.7867 31.715 26.64C31.715 25.28 31.955 24.0933 32.435 23.08C32.915 22.04 33.6617 21.1867 34.675 20.52C35.715 19.8267 37.035 19.32 38.635 19C40.235 18.6533 42.1683 18.48 44.435 18.48C44.435 17.9733 44.3817 17.4667 44.275 16.96C44.1683 16.4533 43.9817 16 43.715 15.6C43.475 15.2 43.1283 14.88 42.675 14.64C42.2217 14.3733 41.6483 14.24 40.955 14.24C39.755 14.24 38.6617 14.4 37.675 14.72C36.715 15.04 35.8083 15.4667 34.955 16C34.5283 16.2667 34.235 16.3867 34.075 16.36C33.9417 16.3333 33.875 16.1867 33.875 15.92V12.88C33.875 12.7733 33.8617 12.6667 33.835 12.56C33.835 12.4267 33.8617 12.32 33.915 12.24C33.995 12.1333 34.195 11.9867 34.515 11.8C35.4217 11.3467 36.3417 10.9733 37.275 10.68C38.235 10.3867 39.435 10.24 40.875 10.24C43.5683 10.24 45.555 10.8933 46.835 12.2C48.1417 13.5067 48.795 15.56 48.795 18.36V27.84C48.795 28.5867 48.795 29.3733 48.795 30.2C48.8217 31 48.875 31.7067 48.955 32.32C49.0083 32.7467 48.8617 32.96 48.515 32.96H45.275ZM44.555 22.28C41.595 22.28 39.475 22.64 38.195 23.36C36.915 24.08 36.275 25.16 36.275 26.6C36.275 27.6133 36.5683 28.3733 37.155 28.88C37.7417 29.3867 38.5283 29.64 39.515 29.64C41.035 29.64 42.2483 29.08 43.155 27.96C44.0883 26.84 44.555 25.0933 44.555 22.72V22.28ZM55.0719 33.04C54.7785 33.04 54.6319 32.88 54.6319 32.56V1.04C54.6319 0.906666 54.6719 0.799999 54.7519 0.719999C54.8585 0.613332 54.9785 0.559999 55.1119 0.559999H58.4719C58.6052 0.559999 58.7119 0.613332 58.7919 0.719999C58.8985 0.799999 58.9519 0.906666 58.9519 1.04V32.56C58.9519 32.6933 58.8985 32.8 58.7919 32.88C58.7119 32.9867 58.6052 33.04 58.4719 33.04H55.0719ZM76.7594 32.96C76.5727 32.96 76.4527 32.9333 76.3994 32.88C76.346 32.8533 76.3194 32.76 76.3194 32.6V30.8C75.6527 31.7333 74.7994 32.4267 73.7594 32.88C72.746 33.36 71.7194 33.6 70.6794 33.6C69.586 33.6 68.5727 33.4533 67.6394 33.16C66.7327 32.8667 65.946 32.4267 65.2794 31.84C64.6394 31.2533 64.1327 30.5333 63.7594 29.68C63.386 28.8 63.1994 27.7867 63.1994 26.64C63.1994 25.28 63.4394 24.0933 63.9194 23.08C64.3994 22.04 65.146 21.1867 66.1594 20.52C67.1994 19.8267 68.5194 19.32 70.1194 19C71.7194 18.6533 73.6527 18.48 75.9194 18.48C75.9194 17.9733 75.866 17.4667 75.7594 16.96C75.6527 16.4533 75.466 16 75.1994 15.6C74.9594 15.2 74.6127 14.88 74.1594 14.64C73.706 14.3733 73.1327 14.24 72.4394 14.24C71.2394 14.24 70.146 14.4 69.1594 14.72C68.1994 15.04 67.2927 15.4667 66.4394 16C66.0127 16.2667 65.7194 16.3867 65.5594 16.36C65.426 16.3333 65.3594 16.1867 65.3594 15.92V12.88C65.3594 12.7733 65.346 12.6667 65.3194 12.56C65.3194 12.4267 65.346 12.32 65.3994 12.24C65.4794 12.1333 65.6794 11.9867 65.9994 11.8C66.906 11.3467 67.826 10.9733 68.7594 10.68C69.7194 10.3867 70.9194 10.24 72.3594 10.24C75.0527 10.24 77.0394 10.8933 78.3194 12.2C79.626 13.5067 80.2794 15.56 80.2794 18.36V27.84C80.2794 28.5867 80.2794 29.3733 80.2794 30.2C80.306 31 80.3594 31.7067 80.4394 32.32C80.4927 32.7467 80.346 32.96 79.9994 32.96H76.7594ZM76.0394 22.28C73.0794 22.28 70.9594 22.64 69.6794 23.36C68.3994 24.08 67.7594 25.16 67.7594 26.6C67.7594 27.6133 68.0527 28.3733 68.6394 28.88C69.226 29.3867 70.0127 29.64 70.9994 29.64C72.5194 29.64 73.7327 29.08 74.6394 27.96C75.5727 26.84 76.0394 25.0933 76.0394 22.72V22.28ZM98.8763 32.88C98.5829 32.88 98.3829 32.8 98.2763 32.64L93.3563 25.04L88.4362 32.64C88.3029 32.8 88.1029 32.88 87.8363 32.88H83.7163C83.3963 32.88 83.3563 32.72 83.5963 32.4L90.8763 21.36L84.3163 11.36C84.2096 11.2267 84.1829 11.12 84.2363 11.04C84.2896 10.9333 84.4229 10.88 84.6363 10.88H88.6363C88.8496 10.88 89.0096 10.96 89.1163 11.12L93.3563 17.68L97.5963 11.12C97.7029 10.96 97.8629 10.88 98.0763 10.88H102.076C102.29 10.88 102.423 10.9333 102.476 11.04C102.53 11.12 102.503 11.2267 102.396 11.36L95.8363 21.36L103.116 32.4C103.356 32.72 103.316 32.88 102.996 32.88H98.8763ZM113.987 33.84C113.294 35.7867 112.48 37.16 111.547 37.96C110.614 38.76 109.414 39.16 107.947 39.16C107.414 39.16 106.907 39.1333 106.427 39.08C105.947 39.0267 105.547 38.92 105.227 38.76C105.094 38.7067 104.987 38.6267 104.907 38.52C104.827 38.44 104.8 38.32 104.827 38.16L105.067 35.52C105.067 35.1733 105.214 35.0533 105.507 35.16C105.907 35.2667 106.28 35.3333 106.627 35.36C106.974 35.4133 107.294 35.44 107.587 35.44C108.04 35.44 108.4 35.3733 108.667 35.24C108.934 35.1067 109.147 34.9333 109.307 34.72C109.387 34.56 109.494 34.3333 109.627 34.04C109.787 33.7467 109.947 33.4133 110.107 33.04C110.267 32.6933 110.414 32.3067 110.547 31.88C110.707 31.48 110.84 31.08 110.947 30.68L104.107 11.28C103.974 10.96 104.08 10.8 104.427 10.8H108.147C108.414 10.8 108.574 10.8667 108.627 11L113.067 24.24L117.587 11C117.64 10.8667 117.8 10.8 118.067 10.8H121.787C122.134 10.8 122.24 10.96 122.107 11.28L113.987 33.84Z" fill="#111111"/>
</svg>
